<?xml version="1.0" encoding="utf-8"?><!DOCTYPE svg PUBLIC "-//W3C//DTD SVG 1.1//EN" "http://www.w3.org/Graphics/SVG/1.1/DTD/svg11.dtd"><svg xmlns="http://www.w3.org/2000/svg" width="220" height="220" viewBox="0 0 41 41" shape-rendering="crispEdges"><path fill="#ffffff" d="M0 0h41v41H0z"/><path stroke="#000000" d="M2 2.5h7m6 0h1m1 0h6m2 0h1m6 0h7M2 3.5h1m5 0h1m6 0h1m1 0h3m2 0h2m2 0h5m1 0h1m5 0h1M2 4.5h1m1 0h3m1 0h1m1 0h1m1 0h1m1 0h2m2 0h1m4 0h4m1 0h1m1 0h1m1 0h1m1 0h3m1 0h1M2 5.5h1m1 0h3m1 0h1m1 0h1m3 0h2m1 0h1m1 0h1m1 0h1m2 0h1m1 0h2m1 0h1m2 0h1m1 0h3m1 0h1M2 6.5h1m1 0h3m1 0h1m1 0h2m2 0h2m2 0h5m2 0h1m1 0h1m2 0h1m1 0h1m1 0h3m1 0h1M2 7.5h1m5 0h1m1 0h2m1 0h1m2 0h2m1 0h1m2 0h2m2 0h4m2 0h1m5 0h1M2 8.5h7m1 0h1m1 0h1m1 0h1m1 0h1m1 0h1m1 0h1m1 0h1m1 0h1m1 0h1m1 0h1m1 0h1m1 0h7M10 9.5h1m2 0h3m2 0h1m1 0h1m1 0h4m2 0h1m1 0h1M2 10.5h1m1 0h5m2 0h1m1 0h2m1 0h4m4 0h2m1 0h2m1 0h1m1 0h5M2 11.5h1m1 0h3m3 0h1m2 0h1m3 0h1m1 0h4m2 0h1m1 0h2m1 0h2m1 0h1m2 0h2M4 12.5h1m3 0h3m1 0h3m2 0h3m2 0h1m1 0h1m1 0h8m3 0h2M3 13.5h1m5 0h1m1 0h2m1 0h1m2 0h1m2 0h1m1 0h4m3 0h2m2 0h2m3 0h1M2 14.5h2m3 0h2m2 0h3m2 0h2m1 0h1m1 0h1m4 0h4m1 0h8M3 15.5h3m1 0h1m2 0h3m1 0h3m4 0h3m1 0h2m3 0h1m2 0h1M2 16.5h2m1 0h1m1 0h3m1 0h1m1 0h3m1 0h1m8 0h1m1 0h3m1 0h4m2 0h1M3 17.5h1m1 0h1m1 0h1m4 0h1m2 0h4m2 0h1m1 0h4m3 0h1m1 0h3m2 0h2M4 18.5h5m1 0h2m3 0h2m2 0h1m1 0h1m2 0h1m1 0h3m2 0h2m1 0h1m1 0h1M3 19.5h1m1 0h3m1 0h2m1 0h1m2 0h4m2 0h2m1 0h2m4 0h2m3 0h1m1 0h1M3 20.5h2m1 0h3m1 0h1m1 0h2m6 0h1m1 0h1m1 0h1m2 0h5m1 0h2m1 0h3M2 21.5h2m2 0h2m4 0h3m1 0h1m1 0h1m1 0h1m1 0h4m2 0h2m1 0h1m6 0h1M7 22.5h2m2 0h3m2 0h1m2 0h1m1 0h1m2 0h5m2 0h2m1 0h3M4 23.5h2m3 0h2m3 0h2m2 0h1m1 0h4m1 0h1m1 0h1m2 0h2m3 0h1M2 24.5h1m1 0h6m1 0h2m1 0h1m2 0h4m2 0h2m2 0h3m2 0h4m1 0h2M3 25.5h2m1 0h2m1 0h2m1 0h6m2 0h1m1 0h2m4 0h1m1 0h1m2 0h2m2 0h2M3 26.5h1m2 0h4m1 0h3m3 0h5m2 0h1m1 0h4m1 0h4m1 0h1m1 0h1M2 27.5h1m1 0h4m1 0h2m1 0h1m4 0h1m2 0h2m1 0h1m1 0h3m2 0h1m2 0h1m2 0h1M2 28.5h1m1 0h1m1 0h1m1 0h3m1 0h3m1 0h3m1 0h1m8 0h1m2 0h4m1 0h2M2 29.5h1m2 0h1m3 0h1m4 0h1m2 0h1m3 0h6m1 0h1m1 0h1m7 0h1M2 30.5h1m2 0h2m1 0h5m1 0h1m1 0h2m1 0h1m1 0h1m2 0h1m2 0h10m1 0h1M10 31.5h2m2 0h2m2 0h5m2 0h1m1 0h2m1 0h1m3 0h2M2 32.5h7m6 0h1m1 0h1m1 0h1m2 0h2m2 0h3m1 0h1m1 0h1m1 0h1m1 0h3M2 33.5h1m5 0h1m1 0h2m1 0h2m2 0h1m5 0h2m1 0h1m1 0h1m1 0h1m3 0h2m1 0h2M2 34.5h1m1 0h3m1 0h1m1 0h1m2 0h2m2 0h1m2 0h2m2 0h2m1 0h8m1 0h2M2 35.5h1m1 0h3m1 0h1m1 0h1m2 0h10m2 0h1m4 0h3m1 0h2m1 0h2M2 36.5h1m1 0h3m1 0h1m1 0h6m6 0h2m2 0h1m1 0h1m1 0h1m6 0h2M2 37.5h1m5 0h1m4 0h1m4 0h1m1 0h4m6 0h3m1 0h1m3 0h1M2 38.5h7m1 0h1m3 0h2m2 0h2m1 0h1m2 0h5m2 0h2m1 0h1m1 0h3"/></svg>
